<svg width="64" height="40" fill="none" xmlns="http://www.w3.org/2000/svg"><circle opacity=".201" cx="20" cy="20" r="20" fill="#000"/><path fill-rule="evenodd" clip-rule="evenodd" d="M45.475 13.694c3.3-.001 3.47-.001 3.641.01l.029.002c.027.002.059.005.106.007l-.631-1.579a6.415 6.415 0 0 0-5.984-4.055h-4.108l1.683 5.615h5.264Zm-17.593 0 1.122-5.615H23.44a1.29 1.29 0 0 0-1.23.905l-1.324 4.24-.147.47h7.144Zm7.954-5.615 1.683 5.615h-7.007l1.122-5.615h4.202ZM27.65 20.583v-4.308h-7.646c-.005.321-.004 1.103-.003 3.106v.397h1.462a1.29 1.29 0 0 1 0 2.58H20v1.635a3.874 3.874 0 0 0 3.643 3.864 7.4 7.4 0 0 1 4.006-7.274Zm33.603.423a1.29 1.29 0 0 0 1.288 1.352h1.445c-.163 2.225-1.57 4.193-3.6 5.05.13-4.212-3.255-7.63-7.384-7.63-4.317 0-7.762 3.718-7.358 8.086H38.36c.43-4.655-3.503-8.531-8.13-8.046v-3.543h7.733v1.462a1.29 1.29 0 0 0 1.352 1.29c.693-.033 1.227-.631 1.227-1.326v-1.426h8.3l13.056.716a1.29 1.29 0 0 1 1.164.917l.196.648v.004c.164.54.281.93.367 1.218h-1.047c-.694 0-1.291.534-1.324 1.228ZM52.3 31.94a4.816 4.816 0 0 0 5.112-2.84c1.389-3.176-.953-6.743-4.41-6.743-2.916 0-5.181 2.59-4.763 5.506a4.826 4.826 0 0 0 4.06 4.077Zm-26.061-4.077a4.82 4.82 0 0 1 4.763-5.506c2.917 0 5.18 2.593 4.762 5.506a4.828 4.828 0 0 1-2.962 3.778 4.797 4.797 0 0 1-5.3-1.165 4.705 4.705 0 0 1-1.246-2.534c-.009-.051-.013-.08-.017-.08Z" fill="#26B5C0"/></svg>