<svg width="64" height="40" fill="none" xmlns="http://www.w3.org/2000/svg"><circle opacity=".201" cx="20" cy="20" r="20" fill="#000"/><path fill-rule="evenodd" clip-rule="evenodd" d="M63.291 19.922c-4.264-2.61-9.52-3.868-13.964-3.753l-3.715-3.785a1.27 1.27 0 0 0-1.82 0 1.328 1.328 0 0 0 0 1.854l2.985 3.04a10.909 10.909 0 0 1-5.247 1.404l-1.664 3.256a334.974 334.974 0 0 0-1.463 2.88c-.178.357-.354.715-.632 1.282l-.543 1.104h9.67c-.466-3.726 2.392-6.99 6.038-6.99 3.595 0 6.45 3.184 6.053 6.883 2.8-.537 4.926-3.045 4.926-6.051 0-.46-.237-.887-.624-1.124Zm-27.033 3.406c-1.07-1.89-3.06-3.114-5.279-3.114-3.595 0-6.45 3.184-6.052 6.885-1.832-.347-3.414-1.537-4.279-3.276a1.331 1.331 0 0 1 .118-1.376l.955-1.303-1.325-1.295c-.751-.735-.376-2.024.64-2.231l2.854-.581c2.638-.537 3.978-.81 4.047-.822.314-.146 1.07-.591 1.07-1.506 0-.734.592-1.327 1.316-1.31.712.016 1.268.662 1.256 1.388a4.11 4.11 0 0 1-.348 1.611c1.605.214 3.177.597 4.7 1.146l-.7-2.473a1.314 1.314 0 0 1 .882-1.622c.683-.2 1.395.202 1.592.898l.749 2.652a3.46 3.46 0 0 1-.247 2.51l-1.949 3.82ZM30.979 30c1.942 0 3.517-1.604 3.517-3.582 0-1.979-1.575-3.583-3.517-3.583s-3.517 1.604-3.517 3.583c0 1.978 1.575 3.582 3.517 3.582Zm21.957 0c1.942 0 3.517-1.604 3.517-3.582 0-1.979-1.575-3.583-3.517-3.583s-3.516 1.604-3.516 3.583c0 1.978 1.574 3.582 3.516 3.582Z" fill="#19B89D"/></svg>